<?xml version="1.0" encoding="UTF-8" standalone="no"?>
<!-- Created with Inkscape (http://www.inkscape.org/) -->

<svg
   xmlns:dc="http://purl.org/dc/elements/1.1/"
   xmlns:cc="http://creativecommons.org/ns#"
   xmlns:rdf="http://www.w3.org/1999/02/22-rdf-syntax-ns#"
   xmlns:svg="http://www.w3.org/2000/svg"
   xmlns="http://www.w3.org/2000/svg"
   version="1.1"
   width="744.09448"
   height="1052.3622"
   id="svg2">
  <title
     id="title3302">TULogo</title>
  <defs
     id="defs4" />
  <metadata
     id="metadata7">
    <rdf:RDF>
      <cc:Work
         rdf:about="">
        <dc:format>image/svg+xml</dc:format>
        <dc:type
           rdf:resource="http://purl.org/dc/dcmitype/StillImage" />
        <dc:title>TULogo</dc:title>
      </cc:Work>
    </rdf:RDF>
  </metadata>
  <g
     id="layer2">
    <rect
       width="745.49255"
       height="1054.5992"
       x="-0.040610313"
       y="-4.2573791"
       id="rect3084"
       style="fill:#000000" />
    <path
       d="m 71.954237,626.16858 0,-357.594 -35.35534,0 -35.3553386,0 0,-98.99495 0,-98.994949 165.6650216,0 165.66501,0 0,349.512779 0,349.51278 36.36549,0 36.3655,0 0,-349.51278 0,-349.512779 134.35028,0 134.35029,0 0,103.035559 0,103.03556 35.35534,0 35.35534,0 0,247.48737 0,247.48738 -35.35534,0 -35.35534,0 0,106.06601 0,106.06602 -301.02546,0 -301.025453,0 0,-357.594 z"
       id="path3086"
       style="fill:#000000" />
    <path
       d="m 71.954237,626.16858 0,-357.594 -35.35534,0 -35.3553386,0 0,-98.99495 0,-98.994949 165.6650216,0 165.66501,0 0,349.512779 0,349.51278 36.36549,0 36.3655,0 0,-349.51278 0,-349.512779 134.35028,0 134.35029,0 0,103.035559 0,103.03556 35.35534,0 35.35534,0 0,247.48737 0,247.48738 -35.35534,0 -35.35534,0 0,106.06601 0,106.06602 -301.02546,0 -301.025453,0 0,-357.594 z"
       id="path3088"
       style="fill:#000000" />
    <path
       d="m 71.954237,626.16858 0,-357.594 -35.35534,0 -35.3553386,0 0,-98.99495 0,-98.994949 165.6650216,0 165.66501,0 0,349.512779 0,349.51278 36.36549,0 36.3655,0 0,-349.51278 0,-349.512779 134.35028,0 134.35029,0 0,103.035559 0,103.03556 35.35534,0 35.35534,0 0,247.48737 0,247.48738 -35.35534,0 -35.35534,0 0,106.06601 0,106.06602 -301.02546,0 -301.025453,0 0,-357.594 z"
       id="path3090"
       style="fill:#000000" />
    <path
       d="m 71.954237,626.16858 0,-357.594 -35.35534,0 -35.3553386,0 0,-98.99495 0,-98.994949 165.6650216,0 165.66501,0 0,349.512779 0,349.51278 36.36549,0 36.3655,0 0,-349.51278 0,-349.512779 134.35028,0 134.35029,0 0,103.035559 0,103.03556 35.35534,0 35.35534,0 0,247.48737 0,247.48738 -35.35534,0 -35.35534,0 0,106.06601 0,106.06602 -301.02546,0 -301.025453,0 0,-357.594 z"
       id="path3092"
       style="fill:#000000" />
    <path
       d="m 71.954237,626.16858 0,-357.594 -35.35534,0 -35.3553386,0 0,-98.99495 0,-98.994949 165.6650216,0 165.66501,0 0,349.512779 0,349.51278 36.36549,0 36.3655,0 0,-349.51278 0,-349.512779 134.35028,0 134.35029,0 0,103.035559 0,103.03556 35.35534,0 35.35534,0 0,247.48737 0,247.48738 -35.35534,0 -35.35534,0 0,106.06601 0,106.06602 -301.02546,0 -301.025453,0 0,-357.594 z"
       id="path3094"
       style="fill:#000000" />
    <path
       d="m 71.954237,626.16858 0,-357.594 -35.35534,0 -35.3553386,0 0,-98.99495 0,-98.994949 165.6650216,0 165.66501,0 0,349.512779 0,349.51278 36.36549,0 36.3655,0 0,-349.51278 0,-349.512779 134.35028,0 134.35029,0 0,103.035559 0,103.03556 35.35534,0 35.35534,0 0,247.48737 0,247.48738 -35.35534,0 -35.35534,0 0,106.06601 0,106.06602 -301.02546,0 -301.025453,0 0,-357.594 z"
       id="path3096"
       style="fill:#d35f5f" />
    <path
       d="m 334.5939,418.52756 0,-349.512783 -166.67517,0 -166.6751716,0 0,-34.345187 0,-34.34518628 369.5965916,0 c 203.27813,0 370.00243,0.68185298 370.49846,1.51522878 0.49602,0.8333759 1.56996,62.6547115 2.3865,137.3807475 l 1.48465,135.86552 -34.59215,0 -34.59215,0 0,-103.03556 0,-103.035563 -136.3706,0 -136.37059,0 0,349.512783 0,349.51278 -34.34519,0 -34.34518,0 0,-349.51278 0,0 z"
       id="path3108"
       style="fill:#000000" />
    <path
       d="m 334.5939,418.52756 0,-349.512783 -166.67517,0 -166.6751716,0 0,-34.345187 0,-34.34518628 369.5965916,0 c 203.27813,0 370.00243,0.68185298 370.49846,1.51522878 0.49602,0.8333759 1.56996,62.6547115 2.3865,137.3807475 l 1.48465,135.86552 -34.59215,0 -34.59215,0 0,-103.03556 0,-103.035563 -136.3706,0 -136.37059,0 0,349.512783 0,349.51278 -34.34519,0 -34.34518,0 0,-349.51278 0,0 z"
       id="path3110"
       style="fill:#000000" />
    <path
       d="m 334.5939,418.52756 0,-349.512783 -166.67517,0 -166.6751716,0 0,-34.345187 0,-34.34518628 369.5965916,0 c 203.27813,0 370.00243,0.68185298 370.49846,1.51522878 0.49602,0.8333759 1.56996,62.6547115 2.3865,137.3807475 l 1.48465,135.86552 -34.59215,0 -34.59215,0 0,-103.03556 0,-103.035563 -136.3706,0 -136.37059,0 0,349.512783 0,349.51278 -34.34519,0 -34.34518,0 0,-349.51278 0,0 z"
       id="path3112"
       style="fill:#000000" />
    <path
       d="m 71.954237,624.59868 0,-357.594 -35.35534,0 -35.3553386,0 0,-97.9848 0,-97.984798 165.6650216,0 165.66501,0 0,349.512778 0,349.51278 36.36549,0 36.3655,0 0,-349.51278 0,-349.512778 134.35028,0 134.35029,0 0,103.035558 0,103.03556 35.35534,0 35.35534,0 0,246.47722 0,246.47722 -35.35534,0 -35.35534,0 0,106.06602 0,106.06602 -301.02546,0 -301.025453,0 0,-357.594 z"
       id="path3126"
       style="fill:#000000 />
    <path
       d="m 334.5939,418.52756 0,-349.512783 -166.67517,0 -166.6751716,0 0,-34.345187 0,-34.34518628 99.6700716,0 c 54.81854,0 221.08722,0.60444821 369.48596,1.34321818 l 269.81587,1.3432181 1.2197,77.953757 c 0.67082,42.874563 1.73071,104.091453 2.35531,136.037523 l 1.13561,58.08378 -34.4503,0 -34.45032,0 0,-103.03556 0,-103.035563 -136.3706,0 -136.37059,0 0,349.512783 0,349.51278 -34.34519,0 -34.34518,0 0,-349.51278 z"
       id="path3128"
       style="fill:#000000" />
    <path
       d="m 334.5939,418.52756 0,-349.512783 -166.67517,0 -166.6751716,0 0,-34.345187 0,-34.34518628 99.6700716,0 c 54.81854,0 221.08722,0.60444821 369.48596,1.34321818 l 269.81587,1.3432181 1.2197,77.953757 c 0.67082,42.874563 1.73071,104.091453 2.35531,136.037523 l 1.13561,58.08378 -34.4503,0 -34.45032,0 0,-103.03556 0,-103.035563 -136.3706,0 -136.37059,0 0,349.512783 0,349.51278 -34.34519,0 -34.34518,0 0,-349.51278 z"
       id="path3130"
       style="fill:#000000" />
    <path
       d="m 71.954237,624.59868 0,-357.594 -35.35534,0 -35.3553386,0 0,-97.9848 0,-97.984798 165.6650216,0 165.66501,0 0,349.512778 0,349.51278 36.36549,0 36.3655,0 0,-349.51278 0,-349.512778 134.35028,0 134.35029,0 0,103.035558 0,103.03556 35.35534,0 35.35534,0 0,246.47722 0,246.47722 -35.35534,0 -35.35534,0 0,106.06602 0,106.06602 -301.02546,0 -301.025453,0 0,-357.594 z"
       id="path3138"
       style="fill:#000000" />
    <path
       d="m 71.954237,624.59868 0,-357.594 -35.35534,0 -35.3553386,0 0,-97.9848 0,-97.984798 165.6650216,0 165.66501,0 0,349.512778 0,349.51278 36.36549,0 36.3655,0 0,-349.51278 0,-349.512778 134.35028,0 134.35029,0 0,103.035558 0,103.03556 35.35534,0 35.35534,0 0,246.47722 0,246.47722 -35.35534,0 -35.35534,0 0,106.06602 0,106.06602 -301.02546,0 -301.025453,0 0,-357.594 z"
       id="path3140"
       style="fill:#000000" />
  </g>
  <g
     id="layer1">
    <rect
       width="743.44165"
       height="70"
       x="0.49453932"
       y="-0.85901034"
       id="rect2997"
       style="fill:#000000" />
    <rect
       width="745.46198"
       height="70"
       x="0.49452436"
       y="983.85529"
       id="rect2997-1"
       style="fill:#000000" />
    <rect
       width="70"
       height="784.41187"
       x="0.51483351"
       y="268.58923"
       id="rect3021"
       style="fill:#000000" />
    <rect
       width="70"
       height="271.25439"
       x="674.6651"
       y="4.5672398"
       id="rect3021-7"
       style="fill:#000000" />
    <rect
       width="70"
       height="703.59967"
       x="334.11688"
       y="65.196701"
       id="rect3021-4"
       style="fill:#000000" />
    <rect
       width="70"
       height="279.3356"
       x="674.64478"
       y="772.24243"
       id="rect3021-7-9"
       style="fill:#000000" />
    <path
       d="m 334.5939,418.52756 0,-349.512783 -166.67517,0 -166.6751716,0 0,-34.345187 0,-34.34518628 370.4903516,0 370.49036,0 1.21818,4.54568648 c 0.67002,2.5001275 1.23063,64.3214628 1.2458,137.3807498 l 0.0276,132.83506 -34.34519,0 -34.34518,0 0,-103.03556 0,-103.035563 -136.3706,0 -136.37059,0 0,349.512783 0,349.51278 -34.34519,0 -34.34518,0 0,-349.51278 z"
       id="path3100"
       style="fill:#000000" />
    <path
       d="m 1.2435584,660.96417 0,-391.93919 34.3451866,0 34.345186,0 0,357.594 0,357.594 303.045759,0 303.04577,0 0,-105.05586 0,-105.05587 34.34518,0 34.34519,0 0,139.40105 0,139.4011 -371.73614,0 -371.7361316,0 0,-391.93923 z"
       id="path3104"
       style="fill:#000000" />
    <path
       d="m 1.2435584,660.96417 0,-391.93919 34.3451866,0 34.345186,0 0,357.594 0,357.594 303.045759,0 303.04577,0 0,-105.05586 0,-105.05587 34.34518,0 34.34519,0 0,139.40105 0,139.4011 -371.73614,0 -371.7361316,0 0,-391.93923 z"
       id="path3114"
       style="fill:#000000" />
    <path
       d="m 334.5939,418.52756 0,-349.512783 -166.67517,0 -166.6751716,0 0,-34.345187 0,-34.34518628 369.5965916,0 c 203.27813,0 370.00243,0.68185298 370.49846,1.51522878 0.49602,0.8333759 1.56996,62.6547115 2.3865,137.3807475 l 1.48465,135.86552 -34.59215,0 -34.59215,0 0,-103.03556 0,-103.035563 -136.3706,0 -136.37059,0 0,349.512783 0,349.51278 -34.34519,0 -34.34518,0 0,-349.51278 0,0 z"
       id="path3118"
       style="fill:#000000" />
    <path
       d="m 1.2435584,660.96417 0,-391.93919 34.3451866,0 34.345186,0 0,357.594 0,357.594 303.045759,0 303.04577,0 0,-105.05586 0,-105.05587 34.34518,0 34.34519,0 0,139.40105 0,139.4011 -371.73614,0 -371.7361316,0 0,-391.93923 z"
       id="path3120"
       style="fill:#000000" />
    <path
       d="m 334.5939,418.52756 0,-349.512783 -166.67517,0 -166.6751716,0 0,-34.345187 0,-34.34518628 99.6700716,0 c 54.81854,0 221.08722,0.60444821 369.48596,1.34321818 l 269.81587,1.3432181 1.2197,77.953757 c 0.67082,42.874563 1.73071,104.091453 2.35531,136.037523 l 1.13561,58.08378 -34.4503,0 -34.45032,0 0,-103.03556 0,-103.035563 -136.3706,0 -136.37059,0 0,349.512783 0,349.51278 -34.34519,0 -34.34518,0 0,-349.51278 z"
       id="path3134"
       style="fill:#000000" />
    <path
       d="m 1.2435584,660.96417 0,-391.93919 34.3451866,0 34.345186,0 0,357.594 0,357.594 303.045759,0 303.04577,0 0,-105.05586 0,-105.05587 34.34518,0 34.34519,0 0,139.40105 0,139.4011 -371.73614,0 -371.7361316,0 0,-391.93923 z"
       id="path3136"
       style="fill:#000000" />
    <path
       d="m 404.19643,510.73383 0,-41.91965 0.53571,0 0.53572,0 0,41.91965 0,41.91964 -0.53572,0 -0.53571,0 0,-41.91964 z"
       id="path3142"
       style="fill:#000000" />
    <path
       d="m 404.19643,510.73383 0,-41.91965 0.53571,0 0.53572,0 0,41.91965 0,41.91964 -0.53572,0 -0.53571,0 0,-41.91964 z"
       id="path3144"
       style="fill:#000000" />
    <path
       d="m 404.19643,510.73383 0,-41.91965 0.53571,0 0.53572,0 0,41.91965 0,41.91964 -0.53572,0 -0.53571,0 0,-41.91964 z"
       id="path3146"
       style="fill:#000000" />
    <path
       d="m 404.19643,510.73383 0,-41.91965 0.53571,0 0.53572,0 0,41.91965 0,41.91964 -0.53572,0 -0.53571,0 0,-41.91964 z"
       id="path3148"
       style="fill:#000000" />
    <path
       d="m 403.30357,510.73383 0,-41.91965 0.40179,0 0.40178,0 0,41.91965 0,41.91964 -0.40178,0 -0.40179,0 0,-41.91964 z"
       id="path3150"
       style="fill:#000000" />
    <path
       d="m 404.19643,510.73383 0,-41.91965 0.53571,0 0.53572,0 0,41.91965 0,41.91964 -0.53572,0 -0.53571,0 0,-41.91964 z"
       id="path3152"
       style="fill:#000000" />
    <path
       d="m 403.30357,510.73383 0,-41.91965 0.40179,0 0.40178,0 0,41.91965 0,41.91964 -0.40178,0 -0.40179,0 0,-41.91964 z"
       id="path3154"
       style="fill:#000000" />
    <path
       d="m 404.19643,510.73383 0,-41.91965 0.53571,0 0.53572,0 0,41.91965 0,41.91964 -0.53572,0 -0.53571,0 0,-41.91964 z"
       id="path3156"
       style="fill:#000000" />
    <path
       d="m 404.19643,510.73383 0,-41.91965 0.53571,0 0.53572,0 0,41.91965 0,41.91964 -0.53572,0 -0.53571,0 0,-41.91964 z"
       id="path3158"
       style="fill:#000000" />
    <path
       d="m 403.30357,510.73383 0,-41.91965 0.40027,0 0.40026,0 0.0238,15.06697 c 0.0131,8.28683 0.0131,27.15067 -6e-5,41.91964 l -0.0239,26.85268 -0.40021,0 -0.40022,0 0,-41.91964 z"
       id="path3160"
       style="fill:#000000" />
    <path
       d="m 334.64286,510.73383 0,-41.91965 34.28571,0 34.28572,0 0,41.91965 0,41.91964 -34.28572,0 -34.28571,0 0,-41.91964 z"
       id="path3162"
       style="fill:#000000" />
    <path
       d="m 404.19643,510.73383 0,-41.91965 0.53571,0 0.53572,0 0,41.91965 0,41.91964 -0.53572,0 -0.53571,0 0,-41.91964 z"
       id="path3164"
       style="fill:#000000" />
    <path
       d="m 404.19643,510.73383 0,-41.91965 0.53571,0 0.53572,0 0,41.91965 0,41.91964 -0.53572,0 -0.53571,0 0,-41.91964 z"
       id="path3166"
       style="fill:#000000" />
    <path
       d="m 404.19643,510.73383 0,-41.91965 0.53571,0 0.53572,0 0,41.91965 0,41.91964 -0.53572,0 -0.53571,0 0,-41.91964 z"
       id="path3168"
       style="fill:#000000" />
    <path
       d="m 405.17414,413.11775 c 10e-6,-30.64285 0.0422,-43.12574 0.0937,-27.73976 0.0515,15.38599 0.0515,40.45742 -10e-6,55.71429 -0.0515,15.25687 -0.0937,2.66833 -0.0937,-27.97453 z"
       id="path3170"
       style="fill:#000000" />
    <path
       d="m 405.16374,453.4749 c 9e-5,-8.44643 0.0468,-11.85074 0.10381,-7.56513 0.057,4.28561 0.0569,11.19633 -1.5e-4,15.35715 -0.0571,4.16081 -0.10374,0.65441 -0.10366,-7.79202 z"
       id="path3172"
       style="fill:#000000" />
    <path
       d="m 334.64286,525.26061 0,-167.67857 34.28571,0 34.28572,0 0.0876,55.80357 0.0876,55.80357 0.18192,-55.89285 0.18192,-55.89286 0.0876,55.625 c 0.0872,55.3577 0.091,55.625 0.8019,55.625 0.71023,0 0.71428,0.2381 0.71428,41.96429 0,41.72618 -0.004,41.96428 -0.71428,41.96428 -0.71157,0 -0.71462,0.26741 -0.80224,70.26786 l -0.0879,70.26786 -0.18124,-70.35715 -0.18124,-70.35714 -0.088,70.26786 -0.0879,70.26785 -34.28572,0 -34.28571,0 0,-167.67857 z"
       id="path3174"
       style="fill:#000000" />
    <path
       d="m 332.85714,525.26061 c 0,-148.80952 0.0603,-167.67857 0.53572,-167.67857 0.47543,0 0.53571,18.86905 0.53571,167.67857 0,148.80953 -0.0603,167.67857 -0.53571,167.67857 -0.47543,0 -0.53572,-18.86904 -0.53572,-167.67857 z"
       id="path3176"
       style="fill:#000000" />
    <path
       d="m 232.44014,-0.9001019 c 78.63672,-0.0495942 207.20815,-0.0495939 285.71429,5.7e-7 78.50614,0.0495945 14.167,0.0901715 -142.97586,0.0901712 -157.14286,-2.9e-7 -221.37515,-0.0405776 -142.73843,-0.0901718 z"
       id="path3178"
       style="fill:#000000" />
    <path
       d="m 89.642857,-2.5965314 0,-1.6071429 285.535713,0 285.53572,0 0,1.6071429 0,1.60714282 -285.53572,0 -285.535713,0 0,-1.60714282 z"
       id="path3180"
       style="fill:#000000" />
    <path
       d="M 563.28528,1.9929249 C 513.72612,1.7271286 426.69933,1.2793418 369.89242,0.99784325 L 266.60714,0.48602764 446.07143,0.64106818 C 544.77679,0.7263405 633.45089,0.90262564 643.125,1.032813 c 16.74693,0.2253683 17.58929,0.2681332 17.58929,0.8929656 0,0.5976785 -0.32679,0.651537 -3.66072,0.6033369 -2.01339,-0.029109 -44.20912,-0.2703943 -93.76829,-0.5361906 l 0,0 z"
       id="path3182"
       style="fill:#000000" />
    <path
       d="m 198.81032,0.1713345 c 32.44389,-0.0502724 85.64032,-0.0502739 118.21429,-3.15e-6 32.57396,0.0502707 6.02896,0.0914027 -58.9889,0.0914044 -65.01785,1.75e-6 -91.66928,-0.0411288 -59.22539,-0.0914012 z"
       id="path3184"
       style="fill:#000000" />
    <path
       d="m 327.08057,0.1713961 c 9.09966,-0.0530889 23.88538,-0.0530719 32.85714,3.782e-5 8.97176,0.0531097 1.52658,0.096546 -16.54485,0.0965253 C 325.32143,0.26793839 317.9809,0.224485 327.08057,0.1713961 z"
       id="path3186"
       style="fill:#000000" />
    <path
       d="m 366.87991,0.89718957 c 0.54288,-0.0820909 1.34645,-0.0798971 1.78571,0.004875 0.43927,0.0847721 -0.005,0.15193733 -0.98705,0.14925613 -0.98214,-0.00268 -1.34154,-0.0720403 -0.79866,-0.15413113 z"
       id="path3188"
       style="fill:#000000" />
    <path
       d=""
       id="path3190"
       style="fill:#000000" />
    <path
       d="m 367.23214,1.2548063 c 0.54018,-0.08183 1.42411,-0.08183 1.96429,0 0.54018,0.08183 0.0982,0.1487822 -0.98214,0.1487822 -1.08036,0 -1.52233,-0.066952 -0.98215,-0.1487822 z"
       id="path3192"
       style="fill:#000000" />
    <path
       d="m 366.71317,0.56464836 -9.54799,-0.005632 0,-0.11158128 0,-0.11158128 17.84598,0 17.84598,0 0,0.12276785 0,0.12276786 -8.29799,-0.005554 c -4.56389,-0.003055 -12.59459,-0.008089 -17.84598,-0.0111866 z"
       id="path3194"
       style="fill:#000000" />
    <path
       d="m 375.60268,1.2162087 c -8.57534,-0.040341 -16.23187,-0.074121 -17.01451,-0.075066 l -1.42299,-0.00172 0,-0.097813 0,-0.0978128 1.88058,0.010674 c 5.71634,0.0324454 7.65301,0.0500426 7.80692,0.0709358 0.23432,0.03181 1.34607,0.03263 1.77455,0.00131 0.2796,-0.020438 2.77557,-0.013421 11.49554,0.032315 6.12611,0.032131 11.49749,0.058342 11.93638,0.058246 l 0.79799,-1.75e-4 0,0.089286 0,0.089286 -0.83147,-0.00306 c -0.45731,-0.00168 -7.84766,-0.036066 -16.42299,-0.076407 z"
       id="path3196"
       style="fill:#000000" />
    <path
       d="m 370.54408,-0.99394543 c 2.4569,-0.00155 6.47726,-0.00155 8.93416,0 2.45689,0.00155 0.4467,0.002818 -4.46708,0.002818 -4.91378,0 -6.92397,-0.001268 -4.46708,-0.002818 z"
       id="path3198"
       style="fill:#000000" />
    <path
       d="m 366.08259,-0.9632535 c 0,-0.0223028 0.007,-0.0223214 8.92857,-0.0223214 8.92113,0 8.92857,1.864e-5 8.92857,0.0223214 0,0.0223028 -0.007,0.0223214 -8.92857,0.0223214 -8.92113,0 -8.92857,-1.861e-5 -8.92857,-0.0223214 z"
       id="path3200"
       style="fill:#000000" />
    <path
       d="m 367.02846,0.55739467 -0.94587,-0.002917 0,-0.10596375 0,-0.10596377 8.92857,0 8.92857,0 0,0.11160715 0,0.11160714 -7.9827,-0.002726 c -4.39048,-0.001499 -8.40834,-0.004039 -8.92857,-0.005643 z"
       id="path3202"
       style="fill:#000000" />
    <path
       d="m 366.08259,-0.30477136 0,-0.625 8.92857,0 8.92857,0 0,0.625 0,0.62500001 -8.92857,0 -8.92857,0 0,-0.62500001 z"
       id="path3204"
       style="fill:#000000" />
    <path
       d="m 371.84722,-0.3065555 0,-0.62739944 3.15475,0 3.15476,0 0,0.62739944 0,0.62739943 -3.15476,0 -3.15475,0 0,-0.62739943 z"
       id="path3206"
       style="fill:#000000" />
    <path
       d="m 371.84722,0.32835539 c 0,-0.003137 0.8673,-0.003543 3.15377,-0.001479 1.73457,0.001566 3.1545,0.003513 3.15541,0.004326 9e-4,8.1353e-4 -1.41829,0.001479 -3.15377,0.001479 -2.28592,0 -3.15541,-0.001192 -3.15541,-0.004326 z"
       id="path3208"
       style="fill:#000000" />
    <path
       d="m 375.29128,0.3297252 c 0.0506,-6.2493e-4 0.13229,-6.2425e-4 0.18151,1.51e-6 0.0492,6.2575e-4 0.008,0.001137 -0.092,0.001136 -0.0998,-8.3e-7 -0.14011,-5.1281e-4 -0.0895,-0.001138 z"
       id="path3210"
       style="fill:#000000" />
    <path
       d="m 371.84785,0.33468279 c 0.003,-0.002625 6.3055,-0.00275 6.30812,-1.2533e-4 10e-4,0.001139 -1.41816,0.00207 -3.154,0.00207 -1.73584,0 -3.15519,-8.7515e-4 -3.15412,-0.001945 z"
       id="path3212"
       style="fill:#000000" />
    <path
       d="m 375.07892,0.33267573 c 0.0295,-0.002904 0.38554,-0.005229 0.38242,-0.002498 -9e-4,7.9292e-4 -0.094,0.002334 -0.20683,0.003424 -0.11285,0.00109 -0.19187,6.7374e-4 -0.17559,-9.2592e-4 z"
       id="path3214"
       style="fill:#000000" />
    <path
       d="m 373.14551,0.32834812 c 0.4227,-5.4785e-4 1.1144,-5.4785e-4 1.53711,0 0.4227,5.4786e-4 0.0769,9.961e-4 -0.76856,9.961e-4 -0.84541,0 -1.19126,-4.4824e-4 -0.76855,-9.961e-4 l 0,0 z"
       id="path3216"
       style="fill:#000000" />
    <path
       d="m 375.39914,0.32444488 c 0.0595,-6.0623e-4 0.1579,-6.067e-4 0.21875,-1.05e-6 0.0608,6.0565e-4 0.0122,0.001102 -0.10812,0.001102 -0.12032,5.8e-7 -0.1701,-4.9496e-4 -0.11063,-0.001101 z"
       id="path3218"
       style="fill:#000000" />
    <path
       d="m 375.32129,0.32446795 c 0.0167,-7.3223e-4 0.0439,-7.3223e-4 0.0606,0 0.0166,7.3223e-4 0.003,0.001331 -0.0303,0.001331 -0.0333,0 -0.0469,-5.991e-4 -0.0303,-0.001331 z"
       id="path3220"
       style="fill:#000000" />
    <path
       d="m 373.696,0.33709887 c 0.003,-0.002672 2.53101,-0.002774 2.53368,-1.031e-4 0.001,0.001152 -0.56891,0.002094 -1.26679,0.002094 -0.69788,0 -1.26798,-8.9612e-4 -1.26689,-0.001991 z"
       id="path3222"
       style="fill:#000000" />
    <path
       d="m 375.19658,0.33616135 c 0.0985,-5.811e-4 0.25842,-5.8091e-4 0.35547,4.2e-7 0.0971,5.8134e-4 0.0165,0.001057 -0.179,0.001057 -0.19551,-2.3e-7 -0.27492,-4.7587e-4 -0.17647,-0.001057 z"
       id="path3224"
       style="fill:#000000" />
    <path
       d="m 375.30957,0.33233842 c 0.008,-8.4275e-4 0.0212,-8.4275e-4 0.0293,0 0.008,8.4275e-4 0.001,0.001532 -0.0146,0.001532 -0.0161,0 -0.0227,-6.8953e-4 -0.0147,-0.001532 z"
       id="path3226"
       style="fill:#000000" />
    <path
       d="m 373.14551,0.56662933 -1.2666,-9.8849e-4 0,-0.11282704 0,-0.11282705 1.55371,-0.001476 c 0.85454,-8.1184e-4 2.25991,-8.1103e-4 3.12304,1.8e-6 l 1.56934,0.001478 0,0.11478432 0,0.11478431 -1.85645,-9.7058e-4 c -1.02104,-5.3383e-4 -2.42641,-0.001415 -3.12304,-0.001959 z"
       id="path3228"
       style="fill:#000000" />
    <path
       d="m 371.87891,-0.305441 0,-0.62890625 3.12304,0 3.12305,0 0,0.62890625 0,0.62890625 -3.12305,0 -3.12304,0 0,-0.62890625 z"
       id="path3230"
       style="fill:#000000" />
    <path
       d="m 375.2235,0.3323181 c 0.0101,-8.0174e-4 0.0277,-8.1006e-4 0.0391,-1.849e-5 0.0114,7.9157e-4 0.003,0.001448 -0.0184,0.001458 -0.0215,1.017e-5 -0.0308,-6.3748e-4 -0.0206,-0.001439 z"
       id="path3232"
       style="fill:#000000" />
    <path
       d="m 375.15743,0.33226944 c 0.0211,-7.0372e-4 0.0545,-7.0065e-4 0.0742,6.83e-6 0.0198,7.0747e-4 0.003,0.001283 -0.0383,0.001279 -0.0408,-3.75e-6 -0.057,-5.8259e-4 -0.0359,-0.001286 z"
       id="path3234"
       style="fill:#000000" />
    <path
       d="m 375.26848,0.33262175 c 0.003,-0.00107 0.008,-0.001135 0.0117,-1.4474e-4 0.004,9.904e-4 0.002,0.001866 -0.005,0.001945 -0.006,7.961e-5 -0.01,-7.3072e-4 -0.007,-0.001801 z"
       id="path3236"
       style="fill:#000000" />
    <path
       d="m 375.247,0.33239288 c 0.006,-8.913e-4 0.0164,-9.0924e-4 0.0234,-3.986e-5 0.007,8.6938e-4 0.002,0.001599 -0.0107,0.001621 -0.0129,2.192e-5 -0.0186,-6.8939e-4 -0.0128,-0.001581 z"
       id="path3238"
       style="fill:#000000" />
    <path
       d="m 375.28411,0.33262175 c 0.003,-0.00107 0.008,-0.001135 0.0117,-1.4474e-4 0.004,9.904e-4 0.002,0.001866 -0.005,0.001945 -0.006,7.961e-5 -0.01,-7.3072e-4 -0.007,-0.001801 z"
       id="path3240"
       style="fill:#000000" />
    <path
       d="m 375.14185,0.57054049 c 0.0383,-6.4009e-4 0.0998,-6.39e-4 0.13672,2.43e-6 0.0369,6.4144e-4 0.006,0.001165 -0.0696,0.001164 -0.0752,-1.34e-6 -0.1054,-5.2615e-4 -0.0671,-0.001166 z"
       id="path3242"
       style="fill:#000000" />
    <path
       d="m 375.11914,1.0224481 c -1.54687,-0.00814 -2.90874,-0.014934 -3.02637,-0.015096 l -0.21386,-2.936e-4 0,-0.21386719 0,-0.21386718 1.93066,9.4905e-4 c 1.06187,5.2197e-4 2.46724,0.002058 3.12305,0.003414 l 1.19238,0.002465 0,0.22607821 0,0.22607821 -0.0967,-5.294e-4 c -0.0532,-2.91e-4 -1.3623,-0.00719 -2.90918,-0.015331 l 0,0 z"
       id="path3244"
       style="fill:#000000" />
    <path
       d="m 375.18066,0.57835897 c 0.0274,-6.7149e-4 0.0722,-6.7149e-4 0.0996,0 0.0274,6.7148e-4 0.005,0.001221 -0.0498,0.001221 -0.0548,0 -0.0772,-5.494e-4 -0.0498,-0.001221 z"
       id="path3246"
       style="fill:#000000" />
    <path
       d="m 375.21575,0.57848663 c 0.006,-8.913e-4 0.0164,-9.0924e-4 0.0234,-3.986e-5 0.007,8.6938e-4 0.002,0.001599 -0.0107,0.001621 -0.0129,2.192e-5 -0.0186,-6.8939e-4 -0.0128,-0.001581 z"
       id="path3248"
       style="fill:#000000" />
    <path
       d="m 373.09668,0.56662934 -1.21777,-9.8897e-4 0,-0.11279012 0,-0.11279012 1.5498,-0.001613 c 0.85239,-8.8732e-4 2.25776,-8.8821e-4 3.12305,-1.99e-6 l 1.57324,0.001611 0,0.11475142 0,0.11475142 -1.90527,-9.7035e-4 c -1.0479,-5.3369e-4 -2.45327,-0.001415 -3.12305,-0.001959 z"
       id="path3250"
       style="fill:#000000" />
    <path
       d="m 376.64258,1.2195856 c -1.74253,-0.00868 -4.47786,-0.021189 -4.62403,-0.021154 l -0.13964,3.36e-5 0,-0.087891 0,-0.087891 0.0615,9.5e-6 c 0.20765,3.22e-5 3.14583,0.012994 4.42871,0.019537 0.84004,0.00428 1.57876,0.00779 1.6416,0.00779 l 0.11426,3.4e-6 0,0.087891 0,0.087891 -0.2334,-5.834e-4 c -0.12837,-3.209e-4 -0.69043,-0.00286 -1.24902,-0.00564 z"
       id="path3252"
       style="fill:#000000" />
    <path
       d="m 376.61719,1.2195832 c -1.67843,-0.00834 -4.48152,-0.021189 -4.61426,-0.021152 l -0.12402,3.45e-5 0,-0.087891 0,-0.087891 0.0732,1.18e-5 c 0.20947,3.39e-5 3.09112,0.012747 4.42676,0.01953 0.84326,0.00428 1.5811,0.00779 1.63964,0.00779 l 0.10645,8.1e-6 0,0.087891 0,0.087891 -0.24512,-5.849e-4 c -0.13481,-3.217e-4 -0.70302,-0.00286 -1.26269,-0.00564 z"
       id="path3254"
       style="fill:#000000" />
    <path
       d="m 376.2168,1.0380744 c -0.71758,-0.00381 -1.98663,-0.00976 -2.8201,-0.013221 -0.83348,-0.00346 -1.51624,-0.00713 -1.51725,-0.00814 -0.001,-0.00101 -7e-4,-0.00299 7.1e-4,-0.00439 0.003,-0.00323 5.87019,0.024957 6.08664,0.029237 0.15149,0.003 0.14378,0.00317 -0.14258,0.0033 -0.16651,7.48e-5 -0.88984,-0.00298 -1.60742,-0.00679 z"
       id="path3256"
       style="fill:#000000" />
    <path
       d="m 374.7663,1.0275679 c 0.10458,-5.784e-4 0.27684,-5.786e-4 0.38282,-4e-7 0.10597,5.782e-4 0.0204,0.00105 -0.19014,0.00105 -0.21054,2e-7 -0.29725,-4.729e-4 -0.19268,-0.00105 z"
       id="path3258"
       style="fill:#000000" />
    <path
       d="m 374.7663,1.0275679 c 0.10458,-5.784e-4 0.27684,-5.786e-4 0.38282,-4e-7 0.10597,5.782e-4 0.0204,0.00105 -0.19014,0.00105 -0.21054,2e-7 -0.29725,-4.729e-4 -0.19268,-0.00105 z"
       id="path3260"
       style="fill:#000000" />
    <path
       d="m 375.02051,1.0236701 c 0.0295,-6.636e-4 0.0779,-6.636e-4 0.10742,0 0.0295,6.636e-4 0.005,0.00121 -0.0537,0.00121 -0.0591,0 -0.0833,-5.429e-4 -0.0537,-0.00121 z"
       id="path3262"
       style="fill:#000000" />
    <path
       d="m 376.98633,1.221405 c -1.08041,-0.00548 -4.89072,-0.022977 -5.00098,-0.022958 l -0.10644,1.81e-5 0,-0.087891 0,-0.087891 0.085,8.6e-6 c 0.20496,2.08e-5 3.02478,0.012433 4.43847,0.019537 0.85186,0.00428 1.58794,0.00779 1.63575,0.00779 l 0.0869,7.4e-6 0,0.087891 0,0.087891 -0.2627,-6.453e-4 c -0.14448,-3.55e-4 -0.53867,-0.00205 -0.87597,-0.00376 z"
       id="path3264"
       style="fill:#000000" />
    <path
       d="m 377.33203,1.033873 c -1.00928,-0.00563 -5.23725,-0.026848 -5.34668,-0.026831 l -0.10644,1.68e-5 0,-0.21394788 0,-0.21394789 1.98535,0.001045 c 1.09194,5.7476e-4 2.49731,0.002147 3.12304,0.003494 l 1.1377,0.002449 0,0.2260784 0,0.22607837 -0.11426,-6.433e-4 c -0.0628,-3.539e-4 -0.36826,-0.00206 -0.67871,-0.00379 z"
       id="path3266"
       style="fill:#000000" />
    <path
       d="m 374.75884,1.2112872 c 0.006,-8.979e-4 0.0147,-8.739e-4 0.0195,5.33e-5 0.005,9.272e-4 -5e-5,0.00166 -0.0108,0.00163 -0.0107,-2.93e-5 -0.0147,-7.879e-4 -0.009,-0.00169 z"
       id="path3268"
       style="fill:#000000" />
    <path
       d="m 371.87891,1.9328403 0,-0.7226563 0.0771,4.13e-5 c 0.0582,3.12e-5 6.16315,0.027005 6.16797,0.027252 5.4e-4,2.75e-5 9.8e-4,0.319093 9.8e-4,0.7090344 l 0,0.7089844 -3.12305,0 -3.12304,0 0,-0.7226562 z"
       id="path3270"
       style="fill:#000000" />
    <path
       d="m 371.87891,-4.2292691 0,-0.025391 3.12304,0 3.12305,0 0,0.025391 0,0.025391 -3.12305,0 -3.12304,0 0,-0.025391 z"
       id="path3272"
       style="fill:#000000" />
    <path
       d="m 376.53711,1.0301978 c -1.82797,-0.0098 -4.48033,-0.023231 -4.57715,-0.023181 l -0.0811,4.19e-5 0,-0.21408448 0,-0.21408449 2.05566,0.001205 c 1.13062,6.6258e-4 2.53599,0.002296 3.12305,0.003631 l 1.06738,0.002426 0,0.22607868 0,0.22607869 -0.1416,-5.59e-4 c -0.0779,-3.074e-4 -0.72871,-0.00371 -1.44629,-0.00755 z"
       id="path3274"
       style="fill:#000000" />
    <path
       d="m 374.67871,0.5783979 c 0.0113,-7.8907e-4 0.0297,-7.8907e-4 0.041,0 0.0113,7.8907e-4 0.002,0.001435 -0.0205,0.001435 -0.0226,0 -0.0318,-6.4561e-4 -0.0205,-0.001435 z"
       id="path3276"
       style="fill:#000000" />
    <path
       d="m 374.68652,0.57852098 c 0.005,-9.3106e-4 0.0128,-9.3106e-4 0.0176,0 0.005,9.3107e-4 8.8e-4,0.001693 -0.009,0.001693 -0.01,0 -0.0136,-7.6178e-4 -0.009,-0.001693 z"
       id="path3278"
       style="fill:#000000" />
    <path
       d="m 377.66797,1.035664 c -0.0612,-4.502e-4 -0.50156,-0.00274 -0.97852,-0.00509 -0.47695,-0.00235 -1.71709,-0.00859 -2.75586,-0.013866 -1.03877,-0.00528 -1.92602,-0.00961 -1.97168,-0.00962 l -0.083,-2.72e-5 0,-0.21432979 0,-0.21432979 2.13379,0.001485 c 1.17358,8.1701e-4 2.57895,0.002561 3.12304,0.003876 l 0.98926,0.00239 0,0.22607903 0,0.22607905 -0.17285,-9.132e-4 c -0.0951,-5.023e-4 -0.22295,-0.00128 -0.28418,-0.00173 z"
       id="path3280"
       style="fill:#000000" />
    <path
       d="m 377.57422,1.0354878 c -0.0913,-5.254e-4 -1.22246,-0.0062 -2.51367,-0.012599 -1.29121,-0.0064 -2.53531,-0.012832 -2.76465,-0.014283 l -0.41699,-0.00264 0,-0.21413649 0,-0.21413645 2.19629,0.001871 c 1.20795,0.001029 2.61333,0.002932 3.12304,0.004228 l 0.92676,0.002357 0,0.22607935 0,0.22607939 -0.19238,-9.33e-4 c -0.10581,-5.132e-4 -0.26709,-0.00136 -0.3584,-0.00189 z"
       id="path3282"
       style="fill:#000000" />
    <path
       d="m 374.30404,0.57749158 c -1.40394,-0.001202 -2.42194,-0.003532 -2.42383,-0.005545 -0.002,-0.002025 0.87976,-0.002432 2.11588,-9.7696e-4 1.16553,0.001372 2.57134,0.002495 3.12403,0.002496 0.66731,2.7e-7 1.00488,0.001313 1.00488,0.003907 0,0.002593 -0.23543,0.003618 -0.7002,0.00305 -0.3851,-4.7107e-4 -1.78945,-0.001789 -3.12076,-0.00293 z"
       id="path3284"
       style="fill:#000000" />
    <path
       d="m 374.01866,1.2073188 c 0.009,-8.252e-4 0.0232,-8.136e-4 0.0312,2.58e-5 0.008,8.393e-4 4.8e-4,0.00151 -0.0167,0.0015 -0.0172,-1.42e-5 -0.0237,-7.009e-4 -0.0145,-0.00153 z"
       id="path3286"
       style="fill:#000000" />
    <path
       d="m 374.03792,1.207296 c 0.0133,-7.604e-4 0.0362,-7.66e-4 0.0508,-1.24e-5 0.0146,7.536e-4 0.004,0.00138 -0.0242,0.00138 -0.0279,6.8e-6 -0.0399,-6.098e-4 -0.0265,-0.00137 z"
       id="path3288"
       style="fill:#000000" />
    <path
       d="m 374.05977,1.2072694 c 0.0211,-7.037e-4 0.0545,-7.006e-4 0.0742,6.9e-6 0.0198,7.074e-4 0.003,0.00128 -0.0383,0.00128 -0.0408,-3.8e-6 -0.057,-5.826e-4 -0.0359,-0.00129 z"
       id="path3290"
       style="fill:#000000" />
    <path
       d="m 374.11035,1.2151986 c 0.006,-8.95e-4 0.0156,-8.95e-4 0.0215,0 0.006,8.951e-4 0.001,0.00163 -0.0108,0.00163 -0.0118,0 -0.0166,-7.322e-4 -0.0107,-0.00163 z"
       id="path3292"
       style="fill:#000000" />
    <path
       d="m 371.87891,2.0109653 0,-0.8007813 0.0889,5.05e-5 c 0.069,3.92e-5 6.15218,0.026941 6.15625,0.027225 5.4e-4,3.74e-5 9.8e-4,0.3542673 9.8e-4,0.7871774 l 0,0.7871094 -3.12305,0 -3.12304,0 0,-0.8007812 z"
       id="path3294"
       style="fill:#000000" />
    <path
       d="m 371.87891,2.0109653 0,-0.8007813 0.10644,6.08e-5 c 0.0841,4.8e-5 6.13494,0.026853 6.13867,0.027194 5.4e-4,4.91e-5 9.8e-4,0.3542885 9.8e-4,0.7871986 l 0,0.7871094 -3.12305,0 -3.12304,0 0,-0.8007812 z"
       id="path3296"
       style="fill:#000000" />
    <path
       d="m 374.88867,1.2196519 c -1.54472,-0.0071 -2.85429,-0.013486 -2.91015,-0.014187 -0.0639,-8.024e-4 -0.0313,-0.00161 0.0879,-0.00218 0.17424,-8.277e-4 1.52304,0.00498 4.79278,0.020653 0.69492,0.00333 1.2643,0.00687 1.2653,0.00787 0.003,0.00261 -0.1372,0.00209 -3.23582,-0.012158 l 0,0 z"
       id="path3298"
       style="fill:#000000" />
    <path
       d="m 374.14153,1.2152054 c 0.006,-8.913e-4 0.0164,-9.093e-4 0.0234,-3.99e-5 0.007,8.694e-4 0.002,0.0016 -0.0107,0.00162 -0.0129,2.19e-5 -0.0186,-6.894e-4 -0.0128,-0.00158 z"
       id="path3300"
       style="fill:#000000" />
  </g>
</svg>
